<svg version="1.1" viewBox="0.0 0.0 960.0 720.0" fill="none" stroke="none" stroke-linecap="square" stroke-miterlimit="10" xmlns:xlink="http://www.w3.org/1999/xlink" xmlns="http://www.w3.org/2000/svg"><clipPath id="p.0"><path d="m0 0l960.0 0l0 720.0l-960.0 0l0 -720.0z" clip-rule="nonzero"/></clipPath><g clip-path="url(#p.0)"><path fill="#000000" fill-opacity="0.0" d="m0 0l960.0 0l0 720.0l-960.0 0z" fill-rule="evenodd"/><path fill="#efefef" d="m394.58792 216.51181l153.73227 0l0 179.37009l-153.73227 0z" fill-rule="evenodd"/><path stroke="#999999" stroke-width="8.0" stroke-linejoin="round" stroke-linecap="butt" d="m394.58792 216.51181l153.73227 0l0 179.37009l-153.73227 0z" fill-rule="evenodd"/><path fill="#000000" fill-opacity="0.0" d="m416.36746 247.25984l108.91336 0" fill-rule="evenodd"/><path stroke="#999999" stroke-width="8.0" stroke-linejoin="round" stroke-linecap="butt" d="m416.36746 247.25984l108.91336 0" fill-rule="evenodd"/><path fill="#000000" fill-opacity="0.0" d="m416.99738 278.63254l108.91339 0" fill-rule="evenodd"/><path stroke="#999999" stroke-width="8.0" stroke-linejoin="round" stroke-linecap="butt" d="m416.99738 278.63254l108.91339 0" fill-rule="evenodd"/><path fill="#000000" fill-opacity="0.0" d="m416.36746 306.19684l108.91336 0" fill-rule="evenodd"/><path stroke="#999999" stroke-width="8.0" stroke-linejoin="round" stroke-linecap="butt" d="m416.36746 306.19684l108.91336 0" fill-rule="evenodd"/><path fill="#000000" fill-opacity="0.0" d="m416.99738 334.97638l108.91339 0" fill-rule="evenodd"/><path stroke="#999999" stroke-width="8.0" stroke-linejoin="round" stroke-linecap="butt" d="m416.99738 334.97638l108.91339 0" fill-rule="evenodd"/><path fill="#000000" fill-opacity="0.0" d="m416.99738 362.50656l108.91339 0" fill-rule="evenodd"/><path stroke="#999999" stroke-width="8.0" stroke-linejoin="round" stroke-linecap="butt" d="m416.99738 362.50656l108.91339 0" fill-rule="evenodd"/><path fill="#666666" d="m450.90936 333.55008l111.650085 -149.28929l22.57373 16.88237l-111.650085 149.2893z" fill-rule="evenodd"/><path fill="#666666" d="m473.60922 350.52676l-28.29538 14.038239l5.4694214 -31.109222z" fill-rule="evenodd"/><path fill="#b7b7b7" d="m359.0573 231.96326l-90.98645 67.66135l0 27.72464l90.98645 68.48648l0 -29.539948l-72.15198 -52.64383l72.15198 -52.148743l0 -29.539948z" fill-rule="evenodd"/><path fill="#b7b7b7" d="m589.64044 231.96326l0 29.539948l72.05823 52.148743l-72.05823 52.64383l0 29.539948l90.98645 -68.48648l0 -27.72464l-90.98645 -67.66135z" fill-rule="evenodd"/></g></svg>