<svg version="1.1" viewBox="0.0 0.0 1041.750656167979 831.5853018372703" fill="none" stroke="none" stroke-linecap="square" stroke-miterlimit="10" xmlns:xlink="http://www.w3.org/1999/xlink" xmlns="http://www.w3.org/2000/svg"><clipPath id="p.0"><path d="m0 0l1041.7506 0l0 831.5853l-1041.7506 0l0 -831.5853z" clip-rule="nonzero"/></clipPath><g clip-path="url(#p.0)"><path fill="#000000" fill-opacity="0.0" d="m0 0l1041.7506 0l0 831.5853l-1041.7506 0z" fill-rule="evenodd"/><path fill="#efefef" d="m302.41608 154.81416l392.80133 0l0 530.28973l-392.80133 0z" fill-rule="evenodd"/><path stroke="#999999" stroke-width="8.0" stroke-linejoin="round" stroke-linecap="butt" d="m302.41608 154.81416l392.80133 0l0 530.28973l-392.80133 0z" fill-rule="evenodd"/><path fill="#000000" fill-opacity="0.0" d="m358.06494 245.71765l278.2846 0" fill-rule="evenodd"/><path stroke="#999999" stroke-width="8.0" stroke-linejoin="round" stroke-linecap="butt" d="m358.06494 245.71765l278.2846 0" fill-rule="evenodd"/><path fill="#000000" fill-opacity="0.0" d="m359.67444 338.4679l278.2846 0" fill-rule="evenodd"/><path stroke="#999999" stroke-width="8.0" stroke-linejoin="round" stroke-linecap="butt" d="m359.67444 338.4679l278.2846 0" fill-rule="evenodd"/><path fill="#000000" fill-opacity="0.0" d="m358.06494 419.959l278.2846 0" fill-rule="evenodd"/><path stroke="#999999" stroke-width="8.0" stroke-linejoin="round" stroke-linecap="butt" d="m358.06494 419.959l278.2846 0" fill-rule="evenodd"/><path fill="#000000" fill-opacity="0.0" d="m359.67444 505.04282l278.2846 0" fill-rule="evenodd"/><path stroke="#999999" stroke-width="8.0" stroke-linejoin="round" stroke-linecap="butt" d="m359.67444 505.04282l278.2846 0" fill-rule="evenodd"/><path fill="#000000" fill-opacity="0.0" d="m359.67444 586.43304l278.2846 0" fill-rule="evenodd"/><path stroke="#999999" stroke-width="8.0" stroke-linejoin="round" stroke-linecap="butt" d="m359.67444 586.43304l278.2846 0" fill-rule="evenodd"/><path fill="#666666" d="m446.32297 500.8261l285.27707 -441.3589l57.6781 49.911064l-285.277 441.3589z" fill-rule="evenodd"/><path fill="#666666" d="m504.32333 551.016l-72.297455 41.502625l13.974884 -91.971344z" fill-rule="evenodd"/><path fill="#b7b7b7" d="m254.13893 175.00513l-202.3489 200.03995l0 81.96759l202.3489 202.47946l0 -87.33453l-160.46207 -155.64084l160.46207 -154.17712l0 -87.3345z" fill-rule="evenodd"/><path fill="#b7b7b7" d="m771.33795 175.00513l0 87.3345l160.25366 154.17712l-160.25366 155.64084l0 87.33453l202.34888 -202.47946l0 -81.96759l-202.34888 -200.03995z" fill-rule="evenodd"/></g></svg>