<svg version="1.1" viewBox="0.0 0.0 1041.750656167979 831.5853018372703" fill="none" stroke="none" stroke-linecap="square" stroke-miterlimit="10" xmlns:xlink="http://www.w3.org/1999/xlink" xmlns="http://www.w3.org/2000/svg"><clipPath id="p.0"><path d="m0 0l1041.7506 0l0 831.5853l-1041.7506 0l0 -831.5853z" clip-rule="nonzero"/></clipPath><g clip-path="url(#p.0)"><path fill="#000000" fill-opacity="0.0" d="m0 0l1041.7506 0l0 831.5853l-1041.7506 0z" fill-rule="evenodd"/><path fill="#efefef" d="m370.98535 228.24203l288.93982 0l0 338.47134l-288.93982 0z" fill-rule="evenodd"/><path stroke="#999999" stroke-width="8.0" stroke-linejoin="round" stroke-linecap="butt" d="m370.98535 228.24203l288.93982 0l0 338.47134l-288.93982 0z" fill-rule="evenodd"/><path fill="#000000" fill-opacity="0.0" d="m411.91995 286.26358l204.70273 0" fill-rule="evenodd"/><path stroke="#999999" stroke-width="8.0" stroke-linejoin="round" stroke-linecap="butt" d="m411.91995 286.26358l204.70273 0" fill-rule="evenodd"/><path fill="#000000" fill-opacity="0.0" d="m413.1039 345.46387l204.70273 0" fill-rule="evenodd"/><path stroke="#999999" stroke-width="8.0" stroke-linejoin="round" stroke-linecap="butt" d="m413.1039 345.46387l204.70273 0" fill-rule="evenodd"/><path fill="#000000" fill-opacity="0.0" d="m411.91995 397.47772l204.70273 0" fill-rule="evenodd"/><path stroke="#999999" stroke-width="8.0" stroke-linejoin="round" stroke-linecap="butt" d="m411.91995 397.47772l204.70273 0" fill-rule="evenodd"/><path fill="#000000" fill-opacity="0.0" d="m413.1039 451.78467l204.70273 0" fill-rule="evenodd"/><path stroke="#999999" stroke-width="8.0" stroke-linejoin="round" stroke-linecap="butt" d="m413.1039 451.78467l204.70273 0" fill-rule="evenodd"/><path fill="#000000" fill-opacity="0.0" d="m413.1039 503.73413l204.70273 0" fill-rule="evenodd"/><path stroke="#999999" stroke-width="8.0" stroke-linejoin="round" stroke-linecap="butt" d="m413.1039 503.73413l204.70273 0" fill-rule="evenodd"/><path fill="#666666" d="m476.8415 449.09326l209.84625 -281.70892l42.42737 31.85704l-209.84631 281.7089z" fill-rule="evenodd"/><path fill="#666666" d="m519.50586 481.12827l-53.18112 26.490143l10.279724 -58.703125z" fill-rule="evenodd"/><path fill="#b7b7b7" d="m304.20624 257.40283l-171.00938 127.67883l0 52.3172l171.00938 129.2359l0 -55.742706l-135.60991 -99.34039l135.60991 -98.40613l0 -55.742706z" fill-rule="evenodd"/><path fill="#b7b7b7" d="m737.58813 257.40283l0 55.742706l135.43384 98.40613l-135.43384 99.34039l0 55.742706l171.0094 -129.2359l0 -52.3172l-171.0094 -127.67883z" fill-rule="evenodd"/></g></svg>